<mxfile host="app.diagrams.net" modified="2024-05-26T21:27:55.850Z" agent="Mozilla/5.0 (Windows NT 10.0; Win64; x64) AppleWebKit/537.36 (KHTML, like Gecko) Chrome/125.0.0.0 Safari/537.36" etag="vsuPjZlbmBqhw6rehUEZ" version="24.4.8" type="device">
  <diagram name="Page-1" id="RUMjjQAfDKgPe7GI_MAq">
    <mxGraphModel dx="855" dy="762" grid="1" gridSize="10" guides="1" tooltips="1" connect="1" arrows="1" fold="1" page="1" pageScale="1" pageWidth="850" pageHeight="1100" math="0" shadow="0">
      <root>
        <mxCell id="0" />
        <mxCell id="1" parent="0" />
        <mxCell id="V5CGTfIeU8QL0vFpjlS9-1" value="1" style="ellipse;whiteSpace=wrap;html=1;" vertex="1" parent="1">
          <mxGeometry x="40" y="50" width="120" height="80" as="geometry" />
        </mxCell>
        <mxCell id="V5CGTfIeU8QL0vFpjlS9-22" style="edgeStyle=orthogonalEdgeStyle;rounded=0;orthogonalLoop=1;jettySize=auto;html=1;exitX=1;exitY=1;exitDx=0;exitDy=0;" edge="1" parent="1" source="V5CGTfIeU8QL0vFpjlS9-2" target="V5CGTfIeU8QL0vFpjlS9-3">
          <mxGeometry relative="1" as="geometry" />
        </mxCell>
        <mxCell id="V5CGTfIeU8QL0vFpjlS9-2" value="2" style="ellipse;whiteSpace=wrap;html=1;" vertex="1" parent="1">
          <mxGeometry x="190" y="160" width="120" height="80" as="geometry" />
        </mxCell>
        <mxCell id="V5CGTfIeU8QL0vFpjlS9-23" style="edgeStyle=orthogonalEdgeStyle;rounded=0;orthogonalLoop=1;jettySize=auto;html=1;exitX=1;exitY=1;exitDx=0;exitDy=0;" edge="1" parent="1" source="V5CGTfIeU8QL0vFpjlS9-3" target="V5CGTfIeU8QL0vFpjlS9-4">
          <mxGeometry relative="1" as="geometry">
            <Array as="points">
              <mxPoint x="470" y="308" />
              <mxPoint x="470" y="360" />
            </Array>
          </mxGeometry>
        </mxCell>
        <mxCell id="V5CGTfIeU8QL0vFpjlS9-3" value="3" style="ellipse;whiteSpace=wrap;html=1;" vertex="1" parent="1">
          <mxGeometry x="365" y="240" width="120" height="80" as="geometry" />
        </mxCell>
        <mxCell id="V5CGTfIeU8QL0vFpjlS9-25" style="edgeStyle=orthogonalEdgeStyle;rounded=0;orthogonalLoop=1;jettySize=auto;html=1;exitX=0;exitY=1;exitDx=0;exitDy=0;" edge="1" parent="1" source="V5CGTfIeU8QL0vFpjlS9-4" target="V5CGTfIeU8QL0vFpjlS9-6">
          <mxGeometry relative="1" as="geometry" />
        </mxCell>
        <mxCell id="V5CGTfIeU8QL0vFpjlS9-4" value="4" style="ellipse;whiteSpace=wrap;html=1;" vertex="1" parent="1">
          <mxGeometry x="490" y="320" width="120" height="80" as="geometry" />
        </mxCell>
        <mxCell id="V5CGTfIeU8QL0vFpjlS9-26" style="edgeStyle=orthogonalEdgeStyle;rounded=0;orthogonalLoop=1;jettySize=auto;html=1;exitX=0;exitY=1;exitDx=0;exitDy=0;" edge="1" parent="1" source="V5CGTfIeU8QL0vFpjlS9-5" target="V5CGTfIeU8QL0vFpjlS9-6">
          <mxGeometry relative="1" as="geometry" />
        </mxCell>
        <mxCell id="V5CGTfIeU8QL0vFpjlS9-5" value="5" style="ellipse;whiteSpace=wrap;html=1;" vertex="1" parent="1">
          <mxGeometry x="520" y="420" width="120" height="80" as="geometry" />
        </mxCell>
        <mxCell id="V5CGTfIeU8QL0vFpjlS9-27" style="edgeStyle=orthogonalEdgeStyle;rounded=0;orthogonalLoop=1;jettySize=auto;html=1;exitX=0;exitY=1;exitDx=0;exitDy=0;" edge="1" parent="1" source="V5CGTfIeU8QL0vFpjlS9-6" target="V5CGTfIeU8QL0vFpjlS9-7">
          <mxGeometry relative="1" as="geometry">
            <Array as="points">
              <mxPoint x="340" y="488" />
              <mxPoint x="340" y="460" />
              <mxPoint x="280" y="460" />
            </Array>
          </mxGeometry>
        </mxCell>
        <mxCell id="V5CGTfIeU8QL0vFpjlS9-28" style="edgeStyle=orthogonalEdgeStyle;rounded=0;orthogonalLoop=1;jettySize=auto;html=1;exitX=0.5;exitY=1;exitDx=0;exitDy=0;" edge="1" parent="1" source="V5CGTfIeU8QL0vFpjlS9-6" target="V5CGTfIeU8QL0vFpjlS9-17">
          <mxGeometry relative="1" as="geometry" />
        </mxCell>
        <mxCell id="V5CGTfIeU8QL0vFpjlS9-6" value="6" style="ellipse;whiteSpace=wrap;html=1;" vertex="1" parent="1">
          <mxGeometry x="340" y="420" width="120" height="80" as="geometry" />
        </mxCell>
        <mxCell id="V5CGTfIeU8QL0vFpjlS9-7" value="7" style="ellipse;whiteSpace=wrap;html=1;" vertex="1" parent="1">
          <mxGeometry x="220" y="480" width="120" height="80" as="geometry" />
        </mxCell>
        <mxCell id="V5CGTfIeU8QL0vFpjlS9-31" style="edgeStyle=orthogonalEdgeStyle;rounded=0;orthogonalLoop=1;jettySize=auto;html=1;exitX=0.5;exitY=1;exitDx=0;exitDy=0;entryX=1;entryY=0.5;entryDx=0;entryDy=0;" edge="1" parent="1" source="V5CGTfIeU8QL0vFpjlS9-8" target="V5CGTfIeU8QL0vFpjlS9-10">
          <mxGeometry relative="1" as="geometry" />
        </mxCell>
        <mxCell id="V5CGTfIeU8QL0vFpjlS9-8" value="8" style="ellipse;whiteSpace=wrap;html=1;" vertex="1" parent="1">
          <mxGeometry x="150" y="600" width="120" height="80" as="geometry" />
        </mxCell>
        <mxCell id="V5CGTfIeU8QL0vFpjlS9-9" value="9" style="ellipse;whiteSpace=wrap;html=1;" vertex="1" parent="1">
          <mxGeometry x="30" y="670" width="120" height="80" as="geometry" />
        </mxCell>
        <mxCell id="V5CGTfIeU8QL0vFpjlS9-32" style="edgeStyle=orthogonalEdgeStyle;rounded=0;orthogonalLoop=1;jettySize=auto;html=1;exitX=1;exitY=1;exitDx=0;exitDy=0;" edge="1" parent="1" source="V5CGTfIeU8QL0vFpjlS9-10" target="V5CGTfIeU8QL0vFpjlS9-11">
          <mxGeometry relative="1" as="geometry" />
        </mxCell>
        <mxCell id="V5CGTfIeU8QL0vFpjlS9-33" style="edgeStyle=orthogonalEdgeStyle;rounded=0;orthogonalLoop=1;jettySize=auto;html=1;exitX=0;exitY=1;exitDx=0;exitDy=0;entryX=0;entryY=0.5;entryDx=0;entryDy=0;" edge="1" parent="1" source="V5CGTfIeU8QL0vFpjlS9-10" target="V5CGTfIeU8QL0vFpjlS9-13">
          <mxGeometry relative="1" as="geometry" />
        </mxCell>
        <mxCell id="V5CGTfIeU8QL0vFpjlS9-10" value="10" style="ellipse;whiteSpace=wrap;html=1;" vertex="1" parent="1">
          <mxGeometry x="50" y="790" width="120" height="80" as="geometry" />
        </mxCell>
        <mxCell id="V5CGTfIeU8QL0vFpjlS9-11" value="11" style="ellipse;whiteSpace=wrap;html=1;" vertex="1" parent="1">
          <mxGeometry x="120" y="890" width="120" height="80" as="geometry" />
        </mxCell>
        <mxCell id="V5CGTfIeU8QL0vFpjlS9-37" style="edgeStyle=orthogonalEdgeStyle;rounded=0;orthogonalLoop=1;jettySize=auto;html=1;exitX=0.5;exitY=1;exitDx=0;exitDy=0;" edge="1" parent="1" source="V5CGTfIeU8QL0vFpjlS9-12" target="V5CGTfIeU8QL0vFpjlS9-19">
          <mxGeometry relative="1" as="geometry" />
        </mxCell>
        <mxCell id="V5CGTfIeU8QL0vFpjlS9-38" style="edgeStyle=orthogonalEdgeStyle;rounded=0;orthogonalLoop=1;jettySize=auto;html=1;exitX=0;exitY=1;exitDx=0;exitDy=0;entryX=0.5;entryY=0;entryDx=0;entryDy=0;" edge="1" parent="1" source="V5CGTfIeU8QL0vFpjlS9-12" target="V5CGTfIeU8QL0vFpjlS9-20">
          <mxGeometry relative="1" as="geometry" />
        </mxCell>
        <mxCell id="V5CGTfIeU8QL0vFpjlS9-12" value="16" style="ellipse;whiteSpace=wrap;html=1;" vertex="1" parent="1">
          <mxGeometry x="690" y="1390" width="120" height="80" as="geometry" />
        </mxCell>
        <mxCell id="V5CGTfIeU8QL0vFpjlS9-13" value="12" style="ellipse;whiteSpace=wrap;html=1;" vertex="1" parent="1">
          <mxGeometry x="160" y="1010" width="120" height="80" as="geometry" />
        </mxCell>
        <mxCell id="V5CGTfIeU8QL0vFpjlS9-35" style="edgeStyle=orthogonalEdgeStyle;rounded=0;orthogonalLoop=1;jettySize=auto;html=1;exitX=0.5;exitY=1;exitDx=0;exitDy=0;entryX=0;entryY=0.5;entryDx=0;entryDy=0;" edge="1" parent="1" source="V5CGTfIeU8QL0vFpjlS9-14" target="V5CGTfIeU8QL0vFpjlS9-12">
          <mxGeometry relative="1" as="geometry" />
        </mxCell>
        <mxCell id="V5CGTfIeU8QL0vFpjlS9-14" value="14" style="ellipse;whiteSpace=wrap;html=1;" vertex="1" parent="1">
          <mxGeometry x="460" y="1190" width="120" height="80" as="geometry" />
        </mxCell>
        <mxCell id="V5CGTfIeU8QL0vFpjlS9-36" style="edgeStyle=orthogonalEdgeStyle;rounded=0;orthogonalLoop=1;jettySize=auto;html=1;exitX=1;exitY=1;exitDx=0;exitDy=0;" edge="1" parent="1" source="V5CGTfIeU8QL0vFpjlS9-15" target="V5CGTfIeU8QL0vFpjlS9-12">
          <mxGeometry relative="1" as="geometry" />
        </mxCell>
        <mxCell id="V5CGTfIeU8QL0vFpjlS9-15" value="15" style="ellipse;whiteSpace=wrap;html=1;" vertex="1" parent="1">
          <mxGeometry x="590" y="1280" width="120" height="80" as="geometry" />
        </mxCell>
        <mxCell id="V5CGTfIeU8QL0vFpjlS9-17" value="13" style="ellipse;whiteSpace=wrap;html=1;" vertex="1" parent="1">
          <mxGeometry x="305" y="1120" width="120" height="80" as="geometry" />
        </mxCell>
        <mxCell id="V5CGTfIeU8QL0vFpjlS9-19" value="17" style="ellipse;whiteSpace=wrap;html=1;" vertex="1" parent="1">
          <mxGeometry x="590" y="1500" width="120" height="80" as="geometry" />
        </mxCell>
        <mxCell id="V5CGTfIeU8QL0vFpjlS9-20" value="18" style="ellipse;whiteSpace=wrap;html=1;" vertex="1" parent="1">
          <mxGeometry x="440" y="1570" width="120" height="80" as="geometry" />
        </mxCell>
        <mxCell id="V5CGTfIeU8QL0vFpjlS9-21" style="edgeStyle=orthogonalEdgeStyle;rounded=0;orthogonalLoop=1;jettySize=auto;html=1;exitX=1;exitY=1;exitDx=0;exitDy=0;entryX=0.1;entryY=0.225;entryDx=0;entryDy=0;entryPerimeter=0;" edge="1" parent="1" source="V5CGTfIeU8QL0vFpjlS9-1" target="V5CGTfIeU8QL0vFpjlS9-2">
          <mxGeometry relative="1" as="geometry" />
        </mxCell>
        <mxCell id="V5CGTfIeU8QL0vFpjlS9-24" style="edgeStyle=orthogonalEdgeStyle;rounded=0;orthogonalLoop=1;jettySize=auto;html=1;exitX=0.5;exitY=1;exitDx=0;exitDy=0;entryX=0.383;entryY=0.025;entryDx=0;entryDy=0;entryPerimeter=0;" edge="1" parent="1" source="V5CGTfIeU8QL0vFpjlS9-4" target="V5CGTfIeU8QL0vFpjlS9-5">
          <mxGeometry relative="1" as="geometry" />
        </mxCell>
        <mxCell id="V5CGTfIeU8QL0vFpjlS9-29" style="edgeStyle=orthogonalEdgeStyle;rounded=0;orthogonalLoop=1;jettySize=auto;html=1;exitX=0.5;exitY=1;exitDx=0;exitDy=0;entryX=0.783;entryY=0.013;entryDx=0;entryDy=0;entryPerimeter=0;" edge="1" parent="1" source="V5CGTfIeU8QL0vFpjlS9-7" target="V5CGTfIeU8QL0vFpjlS9-8">
          <mxGeometry relative="1" as="geometry" />
        </mxCell>
        <mxCell id="V5CGTfIeU8QL0vFpjlS9-30" style="edgeStyle=orthogonalEdgeStyle;rounded=0;orthogonalLoop=1;jettySize=auto;html=1;exitX=0;exitY=1;exitDx=0;exitDy=0;entryX=0.933;entryY=0.175;entryDx=0;entryDy=0;entryPerimeter=0;" edge="1" parent="1" source="V5CGTfIeU8QL0vFpjlS9-8" target="V5CGTfIeU8QL0vFpjlS9-9">
          <mxGeometry relative="1" as="geometry" />
        </mxCell>
        <mxCell id="V5CGTfIeU8QL0vFpjlS9-34" style="edgeStyle=orthogonalEdgeStyle;rounded=0;orthogonalLoop=1;jettySize=auto;html=1;exitX=1;exitY=1;exitDx=0;exitDy=0;entryX=-0.008;entryY=0.338;entryDx=0;entryDy=0;entryPerimeter=0;" edge="1" parent="1" source="V5CGTfIeU8QL0vFpjlS9-14" target="V5CGTfIeU8QL0vFpjlS9-15">
          <mxGeometry relative="1" as="geometry" />
        </mxCell>
      </root>
    </mxGraphModel>
  </diagram>
</mxfile>
